<?xml version="1.0" encoding="utf-8"?>
<!-- Generator: Adobe Illustrator 23.0.1, SVG Export Plug-In . SVG Version: 6.00 Build 0)  -->
<svg version="1.1" id="Layer_1" xmlns="http://www.w3.org/2000/svg" xmlns:xlink="http://www.w3.org/1999/xlink" x="0px" y="0px"
	 viewBox="0 0 92.04 85.6" style="enable-background:new 0 0 92.04 85.6;" xml:space="preserve">
<style type="text/css">
	.st0{fill:#F37021;}
	.st1{fill:#F39663;}
	.st2{fill:none;}
	.st3{fill:#FFFFFF;}
	.st4{fill:#F39663;stroke:#FFFFFF;stroke-width:4.3816;stroke-miterlimit:10;}
	.st5{fill:url(#SVGID_1_);}
	.st6{fill:url(#SVGID_2_);}
	.st7{fill:url(#SVGID_3_);}
	.st8{fill:url(#SVGID_4_);}
	.st9{fill:url(#SVGID_5_);}
	.st10{fill:url(#SVGID_6_);}
	.st11{fill:url(#SVGID_7_);}
	.st12{fill:url(#SVGID_8_);}
	.st13{fill:url(#SVGID_9_);}
	.st14{fill:url(#SVGID_10_);}
	.st15{fill:url(#SVGID_11_);}
	.st16{fill:url(#SVGID_12_);}
	.st17{fill:url(#SVGID_13_);}
	.st18{fill:url(#SVGID_14_);}
</style>
<g>
	<g>
		<path class="st1" d="M78.52,62.5c4.31-1.23,7.61-3.37,9.91-6.43c2.3-3.05,3.44-6.65,3.44-10.79c0-3.64-0.84-6.92-2.52-9.83
			c-1.68-2.91-4.19-5.19-7.52-6.85c-3.33-1.65-7.38-2.48-12.14-2.48h-8.82v13.94h7.39c2.29,0,4.02,0.56,5.17,1.68
			c1.15,1.12,1.72,2.66,1.72,4.62c0,4.15-2.3,6.22-6.89,6.22h-6.35h-1.8h-5.23c-1.59,1.78-3.39,3.45-5.42,4.96
			c-1.8,1.35-3.77,2.45-5.9,3.33V85.6h16.55V63.67h1.68L73.81,85.6h18.23L78.52,62.5z"/>
		<rect x="39.36" y="26.12" width="18.52" height="0"/>
		<rect x="39.36" y="26.12" class="st1" width="18.52" height="1.68"/>
		<rect x="35.13" y="29.48" class="st1" width="22.75" height="1.68"/>
		<polygon class="st1" points="45.36,32.84 43.36,32.84 43.36,34.52 45.36,34.52 57.88,34.52 57.88,32.84 		"/>
		<rect x="40.36" y="36.2" class="st1" width="17.52" height="1.68"/>
		<g>
			<path d="M40.36,37.88h3.82c-1.23,2.63-2.91,4.62-5.04,5.96c-2.13,1.34-4.59,2.02-7.39,2.02c-4.93,0-8.67-1.33-11.21-3.99
				c-2.55-2.66-3.82-6.56-3.82-11.72c0-4.54,1.19-8.16,3.57-10.88c2.38-2.72,5.59-4.07,9.62-4.07c2.35,0,4.4,0.48,6.13,1.43
				c1.74,0.95,3.05,2.24,3.95,3.86h17.39c-1.01-6.27-3.95-11.26-8.82-14.95C43.68,1.85,37.43,0,29.82,0
				c-6.05,0-11.31,1.27-15.79,3.82C9.55,6.37,6.09,9.93,3.65,14.49C1.22,19.06,0,24.28,0,30.16c0,5.88,1.22,11.12,3.65,15.71
				c2.44,4.59,5.92,8.16,10.46,10.71c4.54,2.55,9.83,3.82,15.88,3.82c7.11,0,13.01-1.75,17.68-5.25c4.67-3.5,8.08-7.71,10.21-12.64
				v-4.62L40.36,37.88L40.36,37.88z"/>
			<polygon points="27.72,27.8 27.72,29.48 34.36,29.48 35.13,29.48 57.88,29.48 57.88,27.8 39.36,27.8 			"/>
			<polygon points="43.36,32.84 45.36,32.84 57.88,32.84 57.88,31.16 35.13,31.16 34.36,31.16 28.94,31.16 28.94,32.84 			"/>
			<polygon points="36.03,36.2 40.36,36.2 57.88,36.2 57.88,34.52 45.36,34.52 43.36,34.52 36.03,34.52 			"/>
			<rect x="60.88" y="26.12" width="8.88" height="1.68"/>
			<polygon points="75.75,31.16 75.75,29.48 65.75,29.48 60.88,29.48 60.88,31.16 65.75,31.16 			"/>
			<polygon points="75.75,32.84 60.88,32.84 60.88,34.52 75.75,34.52 79.75,34.52 79.75,32.84 			"/>
			<polygon points="60.88,36.2 60.88,37.88 63.75,37.88 72.75,37.88 72.75,36.2 63.75,36.2 			"/>
		</g>
	</g>
</g>
</svg>
