<?xml version="1.0" encoding="utf-8"?>
<!-- Generator: Adobe Illustrator 23.0.1, SVG Export Plug-In . SVG Version: 6.00 Build 0)  -->
<svg version="1.1" id="Layer_1" xmlns="http://www.w3.org/2000/svg" xmlns:xlink="http://www.w3.org/1999/xlink" x="0px" y="0px"
	 viewBox="0 0 111.86 113.49" style="enable-background:new 0 0 111.86 113.49;" xml:space="preserve">
<style type="text/css">
	.st0{fill:#F37021;}
	.st1{fill:#F39663;}
	.st2{fill:none;}
	.st3{fill:#FFFFFF;}
	.st4{fill:#F39663;stroke:#FFFFFF;stroke-width:4.3816;stroke-miterlimit:10;}
	.st5{fill:url(#SVGID_1_);}
	.st6{fill:url(#SVGID_2_);}
	.st7{fill:url(#SVGID_3_);}
	.st8{fill:url(#SVGID_4_);}
	.st9{fill:url(#SVGID_5_);}
	.st10{fill:url(#SVGID_6_);}
	.st11{fill:url(#SVGID_7_);}
	.st12{fill:url(#SVGID_8_);}
	.st13{fill:url(#SVGID_9_);}
	.st14{fill:url(#SVGID_10_);}
	.st15{fill:url(#SVGID_11_);}
	.st16{fill:url(#SVGID_12_);}
	.st17{fill:url(#SVGID_13_);}
	.st18{fill:url(#SVGID_14_);}
</style>
<g>
	<g>
		<path d="M53.97,45.27V31.76h14.16c-0.68-3.05-1.88-5.84-3.61-8.28l-1.22-1.72H41.46v23.51v8.93v29.46v10.37v19.46h12.51V92.81
			V81.73v-6.72h5.5l1.78-1.99c1.93-2.16,3.51-4.75,4.74-7.66H53.97V54.2V45.27z"/>
		<path d="M89.82,73.1C101.62,69.17,109,59.76,109,47.25c0-13.24-9.8-22.69-25.08-24.95c1.27,3.13,2.18,6.41,2.65,9.81l0.22,1.57
			c5.82,2.62,9.34,7.78,9.34,14.52c0,7.61-4.07,13.26-10.66,15.74l-0.53,1.81c-1.19,4.06-2.77,7.77-4.7,11.02l-0.93,1.57
			l18.61,35.14h13.94L89.82,73.1z"/>
	</g>
	<g>
		<path class="st0" d="M56.95,45.27v8.93h14.77c-0.35,4.07-1.22,7.8-2.49,11.16c-1.41,3.72-3.35,6.96-5.76,9.65
			c-1.9,2.12-4.09,3.88-6.52,5.26v11.66c8.85-2.9,15.99-8.65,20.74-16.67c1.85-3.12,3.31-6.6,4.41-10.34
			c1.45-4.93,2.25-10.34,2.25-16.19v-3.45H56.95z"/>
		<path class="st0" d="M43.24,10.36c10.12,0,18.68,4.29,23.71,11.4c2.05,2.9,3.5,6.27,4.24,10.01h6.12c2.25,0,4.33,0.27,6.25,0.76
			h0.07c-0.53-3.8-1.59-7.35-3.08-10.61C74.37,8.43,60.51,0,43.24,0C17.27,0,0,18.82,0,47.06c0,26.45,15.21,44.55,38.48,46.74V83.35
			C22.94,80.99,12.87,67.1,12.87,47.06C12.87,25.02,25.02,10.36,43.24,10.36z"/>
	</g>
</g>
</svg>
